<svg width="400" height="97" viewBox="0 0 400 97" fill="none" xmlns="http://www.w3.org/2000/svg">
<g clip-path="url(#clip0_643_10524)">
<path d="M385.608 14.3055C387.245 15.9484 389.178 16.7694 391.407 16.7694C393.706 16.7694 395.673 15.9484 397.31 14.3055C398.947 12.6631 399.765 10.7239 399.765 8.48748C399.765 6.25104 398.947 4.29404 397.31 2.61647C395.673 0.939367 393.706 0.100586 391.407 0.100586C389.178 0.100586 387.245 0.939367 385.608 2.61647C383.971 4.29404 383.153 6.25104 383.153 8.48748C383.153 10.7239 383.971 12.6631 385.608 14.3055ZM209.349 35.7495C209.349 35.9212 209.209 36.0604 209.038 36.0604H197.542V57.866C197.542 59.6833 197.995 61.0111 198.901 61.8498C199.806 62.6886 201.129 63.1603 202.871 63.2653C204.464 63.3612 206.407 63.3548 208.699 63.2457L208.758 63.243L208.864 63.2379L209.021 63.2297C209.199 63.2206 209.349 63.3626 209.349 63.5407V75.2005C209.349 75.2769 209.32 75.3507 209.27 75.4076C209.219 75.4646 209.148 75.5007 209.072 75.5092L208.861 75.532C199.855 76.4954 193.488 75.6041 189.759 72.8577C185.962 70.0619 184.064 65.0648 184.064 57.866V36.0604H175.286C175.203 36.0604 175.124 36.0277 175.066 35.9695C175.008 35.9113 174.975 35.8323 174.975 35.7499V23.3714C174.975 23.2002 175.114 23.0609 175.286 23.0609H184.064V14.4028C184.064 14.1562 184.21 13.9334 184.435 13.8339L197.106 8.23818C197.153 8.21716 197.205 8.20831 197.257 8.21244C197.308 8.21657 197.358 8.23354 197.401 8.26181C197.445 8.29009 197.48 8.32876 197.505 8.37431C197.53 8.41987 197.542 8.47086 197.542 8.52264V23.0609H209.038C209.209 23.0609 209.349 23.2002 209.349 23.3714V35.7495ZM233.788 32.0761C235.042 28.7214 237.114 26.2051 240.005 24.528C242.65 22.9929 245.573 22.16 248.772 22.0304C248.927 22.0235 249.164 22.0189 249.355 22.0162C249.528 22.0135 249.669 22.1532 249.669 22.3258V36.5513C249.669 36.8481 249.412 37.0768 249.116 37.0499C245.229 36.6974 241.739 37.5553 238.647 39.6242C235.408 41.7908 233.788 45.3902 233.788 50.422V75.1667C233.788 75.2492 233.756 75.3283 233.697 75.3866C233.639 75.4449 233.56 75.4776 233.477 75.4776H220.621C220.539 75.4776 220.46 75.4449 220.401 75.3866C220.343 75.3283 220.31 75.2492 220.31 75.1667V23.3709C220.31 23.1993 220.45 23.0604 220.621 23.0604H233.477C233.649 23.0604 233.788 23.1993 233.788 23.3709V32.0761Z" fill="#212067"/>
<path fill-rule="evenodd" clip-rule="evenodd" d="M297.518 23.0598C297.436 23.0598 297.357 23.0925 297.298 23.1507C297.24 23.2089 297.207 23.2879 297.207 23.3703V29.2449C293.167 24.1428 287.49 21.5923 280.177 21.5923C273.211 21.5923 267.239 24.2652 262.258 29.6116C257.278 34.9584 254.788 41.5107 254.788 49.2684C254.788 57.0261 257.278 63.5783 262.258 68.9252C267.239 74.2715 273.211 76.945 280.177 76.945C287.49 76.945 293.167 74.3939 297.207 69.2918V75.1665C297.207 75.3382 297.346 75.477 297.518 75.477H310.374C310.415 75.477 310.455 75.469 310.493 75.4535C310.531 75.4379 310.565 75.415 310.594 75.3862C310.623 75.3574 310.646 75.3231 310.661 75.2854C310.677 75.2477 310.685 75.2073 310.685 75.1665V23.3703C310.685 23.2879 310.652 23.2089 310.594 23.1507C310.536 23.0925 310.456 23.0598 310.374 23.0598H297.518ZM272.339 59.9616C275.056 62.6875 278.504 64.0505 282.683 64.0505C286.863 64.0505 290.328 62.6702 293.079 59.9095C295.83 57.1489 297.206 53.602 297.206 49.2684C297.206 44.9352 295.83 41.3883 293.079 38.6277C290.328 35.8671 286.863 34.4867 282.683 34.4867C278.504 34.4867 275.056 35.8671 272.339 38.6281C269.623 41.3883 268.265 44.9352 268.265 49.2684C268.265 53.602 269.623 57.1663 272.339 59.9616ZM369.224 29.6116C364.244 24.2648 358.236 21.5918 351.201 21.5918C343.888 21.5918 338.246 24.1428 334.275 29.2445V23.3707C334.275 23.2883 334.243 23.2094 334.184 23.1511C334.126 23.0929 334.047 23.0602 333.965 23.0602H321.108C321.026 23.0602 320.947 23.0929 320.889 23.1511C320.83 23.2094 320.798 23.2883 320.797 23.3707V96.1337C320.797 96.3054 320.937 96.4447 321.108 96.4447H333.965C334.047 96.4447 334.126 96.4119 334.184 96.3536C334.243 96.2953 334.275 96.2162 334.275 96.1337V69.2923C338.246 74.3944 343.888 76.9454 351.201 76.9454C358.236 76.9454 364.244 74.272 369.224 68.9256C374.205 63.5788 376.694 57.0265 376.694 49.2688C376.694 41.5111 374.205 34.9589 369.224 29.612V29.6116ZM338.349 59.962C341.066 62.688 344.513 64.0509 348.693 64.0509C352.872 64.0509 356.337 62.6706 359.089 59.91C361.84 57.1494 363.215 53.6025 363.215 49.2688C363.215 44.9357 361.84 41.3888 359.089 38.6281C356.337 35.8675 352.872 34.4872 348.693 34.4872C344.513 34.4872 341.066 35.8675 338.349 38.6286C335.633 41.3888 334.275 44.9357 334.275 49.2688C334.275 53.6025 335.633 57.1667 338.349 59.962Z" fill="#212067"/>
<path d="M385.032 75.4783C384.95 75.4783 384.871 75.4456 384.812 75.3873C384.754 75.329 384.721 75.2499 384.721 75.1674V23.3716C384.721 23.2 384.86 23.0607 385.032 23.0607H397.888C398.06 23.0607 398.199 23.2 398.199 23.3716V75.1674C398.199 75.2499 398.166 75.329 398.108 75.3873C398.05 75.4456 397.971 75.4783 397.888 75.4783H385.032ZM144.448 41.3532C142.602 40.4797 141.679 39.3441 141.679 37.946C141.679 36.6182 142.254 35.5698 143.403 34.8009C144.552 34.0324 145.998 33.648 147.739 33.648C151.078 33.648 153.601 34.9539 155.306 37.5656C155.363 37.6544 155.449 37.7201 155.55 37.7509C155.651 37.7817 155.759 37.7756 155.856 37.7337L167.227 32.6859C167.267 32.6683 167.303 32.6424 167.332 32.61C167.361 32.5775 167.383 32.5392 167.397 32.4976C167.41 32.456 167.415 32.4121 167.41 32.3687C167.405 32.3252 167.391 32.2833 167.369 32.2457C167.238 32.0236 167.105 31.8032 166.969 31.5846C165.019 28.5098 162.498 26.2195 159.336 24.4748C155.854 22.5525 151.988 21.5918 147.739 21.5918C142.097 21.5918 137.378 23.0771 133.582 26.0473C129.786 29.0175 127.887 33.0886 127.887 38.2606C127.887 41.6851 128.811 44.5334 130.656 46.8045C132.502 49.0761 134.748 50.7359 137.395 51.7843C140.042 52.8326 142.689 53.7061 145.336 54.4052C147.983 55.1042 150.229 55.8905 152.075 56.764C153.921 57.6375 154.844 58.7735 154.844 60.1712C154.844 63.1765 152.44 64.6792 147.635 64.6792C143.059 64.6792 139.889 62.9825 138.124 59.5899C137.972 59.2981 137.625 59.1648 137.325 59.2986L125.985 64.34C125.947 64.3567 125.913 64.381 125.885 64.4112C125.856 64.4414 125.834 64.4771 125.82 64.516C125.806 64.555 125.799 64.5964 125.801 64.6378C125.803 64.6793 125.813 64.7199 125.831 64.7573C125.877 64.8523 125.926 64.9518 125.961 65.0226C129.924 72.9707 137.148 76.945 147.635 76.945C153.625 76.945 158.622 75.4948 162.627 72.594C166.633 69.6936 168.635 65.5527 168.635 60.1712C168.635 56.6069 167.712 53.6362 165.866 51.2601C164.02 48.8839 161.774 47.189 159.127 46.1758C156.533 45.1791 153.882 44.339 151.187 43.6599C148.54 42.9956 146.294 42.2266 144.448 41.3532Z" fill="#212067"/>
<path d="M0.235352 33.6568C0.235352 17.8378 0.235352 9.92846 5.14978 5.01404C10.0642 0.0996094 17.9735 0.0996094 33.7925 0.0996094H63.4782C79.2972 0.0996094 87.2065 0.0996094 92.1209 5.01404C97.0354 9.92846 97.0354 17.8378 97.0354 33.6568V63.3424C97.0354 79.1615 97.0354 87.0708 92.1209 91.9852C87.2065 96.8996 79.2972 96.8996 63.4782 96.8996H33.7925C17.9735 96.8996 10.0642 96.8996 5.14978 91.9852C0.235352 87.0708 0.235352 79.1615 0.235352 63.3424V33.6568Z" fill="#4945FF"/>
<path fill-rule="evenodd" clip-rule="evenodd" d="M67.0271 29.4629H34.4375V46.0801H51.0551V62.6973H67.6723V30.1081C67.6723 29.7519 67.3833 29.4629 67.0271 29.4629Z" fill="white"/>
<path d="M50.4092 46.0801H51.0544V46.7253H50.4092V46.0801Z" fill="white"/>
<path d="M34.4375 46.0801H50.4095C50.7661 46.0801 51.0552 46.3691 51.0552 46.7253V62.6973H35.0832C34.7266 62.6973 34.4375 62.4087 34.4375 62.0521V46.0801ZM51.0552 62.6973H67.6723L51.6058 78.7638C51.5608 78.809 51.5033 78.8398 51.4407 78.8523C51.3781 78.8648 51.3133 78.8585 51.2543 78.8341C51.1953 78.8097 51.1449 78.7683 51.1095 78.7152C51.074 78.6621 51.0551 78.5997 51.0552 78.5359V62.6973ZM34.4375 46.0801H18.5998C18.536 46.08 18.4737 46.061 18.4207 46.0256C18.3677 45.9901 18.3264 45.9398 18.302 45.8809C18.2775 45.822 18.2711 45.7572 18.2835 45.6946C18.2959 45.6321 18.3265 45.5746 18.3715 45.5294L34.438 29.4629L34.4375 46.0801Z" fill="#9593FF"/>
</g>
<defs>
<clipPath id="clip0_643_10524">
<rect width="400" height="96.8" fill="white" transform="translate(0 0.0996094)"/>
</clipPath>
</defs>
</svg>
